HIERARCHY
ROOT hip
{
  OFFSET 0 0 0
  CHANNELS 6 Xposition Yposition Zposition Zrotation Yrotation Xrotation
  JOINT abdomen
  {
    OFFSET 0 20.6881 -0.73152
    CHANNELS 3 Zrotation Xrotation Yrotation
    JOINT chest
    {
      OFFSET 0 11.7043 -0.48768
      CHANNELS 3 Zrotation Xrotation Yrotation
      JOINT neck
      {
        OFFSET 0 22.1894 -2.19456
        CHANNELS 3 Zrotation Xrotation Yrotation
        JOINT head
        {
          OFFSET -0.24384 7.07133 1.2192
          CHANNELS 3 Zrotation Xrotation Yrotation
          JOINT leftEye
          {
            OFFSET 4.14528 8.04674 8.04672
            CHANNELS 3 Zrotation Xrotation Yrotation
            End Site
            {
              OFFSET 1 0 0
            }
          }
          JOINT rightEye
          {
            OFFSET -3.6576 8.04674 8.04672
            CHANNELS 3 Zrotation Xrotation Yrotation
            End Site
            {
              OFFSET 1 0 0
            }
          }
        }
      }
      JOINT rCollar
      {
        OFFSET -2.68224 19.2634 -4.8768
        CHANNELS 3 Zrotation Xrotation Yrotation
        JOINT rShldr
        {
          OFFSET -8.77824 -1.95073 1.46304
          CHANNELS 3 Zrotation Xrotation Yrotation
          JOINT rForeArm
          {
            OFFSET -28.1742 -1.7115 0.48768
            CHANNELS 3 Zrotation Xrotation Yrotation
            JOINT rHand
            {
              OFFSET -22.5879 0.773209 7.07136
              CHANNELS 3 Zrotation Xrotation Yrotation
              JOINT rThumb1
              {
                OFFSET -1.2192 -0.487915 3.41376
                CHANNELS 3 Zrotation Xrotation Yrotation
                JOINT rThumb2
                {
                  OFFSET -3.37035 -0.52449 3.41376
                  CHANNELS 3 Zrotation Xrotation Yrotation
                  End Site
                  {
                    OFFSET -1.78271 -1.18214 1.43049
                  }
                }
              }
              JOINT rIndex1
              {
                OFFSET -7.75947 0.938293 5.60832
                CHANNELS 3 Zrotation Xrotation Yrotation
                JOINT rIndex2
                {
                  OFFSET -2.54057 -0.884171 1.56538
                  CHANNELS 3 Zrotation Xrotation Yrotation
                  End Site
                  {
                    OFFSET -1.62519 -0.234802 1.16502
                  }
                }
              }
              JOINT rMid1
              {
                OFFSET -8.24714 1.18213 3.41376
                CHANNELS 3 Zrotation Xrotation Yrotation
                JOINT rMid2
                {
                  OFFSET -3.10165 -0.590103 1.0647
                  CHANNELS 3 Zrotation Xrotation Yrotation
                  End Site
                  {
                    OFFSET -2.48547 -0.328903 0.83742
                  }
                }
              }
              JOINT rRing1
              {
                OFFSET -8.82822 0.546677 1.51678
                CHANNELS 3 Zrotation Xrotation Yrotation
                JOINT rRing2
                {
                  OFFSET -2.60934 -0.819778 -0.0198488
                  CHANNELS 3 Zrotation Xrotation Yrotation
                  End Site
                  {
                    OFFSET -2.33842 -0.294052 0.168128
                  }
                }
              }
              JOINT rPinky1
              {
                OFFSET -8.27202 -0.0477905 -0.4584
                CHANNELS 3 Zrotation Xrotation Yrotation
                JOINT rPinky2
                {
                  OFFSET -1.82734 -0.647385 -0.700984
                  CHANNELS 3 Zrotation Xrotation Yrotation
                  End Site
                  {
                    OFFSET -1.69225 -0.51767 -0.607171
                  }
                }
              }
            }
          }
        }
      }
      JOINT lCollar
      {
        OFFSET 2.68224 19.2634 -4.8768
        CHANNELS 3 Zrotation Xrotation Yrotation
        JOINT lShldr
        {
          OFFSET 8.77824 -1.95073 1.46304
          CHANNELS 3 Zrotation Xrotation Yrotation
          JOINT lForeArm
          {
            OFFSET 28.1742 -1.7115 0.48768
            CHANNELS 3 Zrotation Xrotation Yrotation
            JOINT lHand
            {
              OFFSET 22.5879 0.773209 7.07136
              CHANNELS 3 Zrotation Xrotation Yrotation
              JOINT lThumb1
              {
                OFFSET 1.2192 -0.487915 3.41376
                CHANNELS 3 Zrotation Xrotation Yrotation
                JOINT lThumb2
                {
                  OFFSET 3.37035 -0.52449 3.41376
                  CHANNELS 3 Zrotation Xrotation Yrotation
                  End Site
                  {
                    OFFSET 1.78271 -1.18214 1.43049
                  }
                }
              }
              JOINT lIndex1
              {
                OFFSET 7.75947 0.938293 5.60832
                CHANNELS 3 Zrotation Xrotation Yrotation
                JOINT lIndex2
                {
                  OFFSET 2.54057 -0.884171 1.56538
                  CHANNELS 3 Zrotation Xrotation Yrotation
                  End Site
                  {
                    OFFSET 1.62519 -0.234802 1.16502
                  }
                }
              }
              JOINT lMid1
              {
                OFFSET 8.24714 1.18213 3.41376
                CHANNELS 3 Zrotation Xrotation Yrotation
                JOINT lMid2
                {
                  OFFSET 3.10165 -0.590103 1.0647
                  CHANNELS 3 Zrotation Xrotation Yrotation
                  End Site
                  {
                    OFFSET 2.48547 -0.328903 0.83742
                  }
                }
              }
              JOINT lRing1
              {
                OFFSET 8.82822 0.546677 1.51678
                CHANNELS 3 Zrotation Xrotation Yrotation
                JOINT lRing2
                {
                  OFFSET 2.60934 -0.819778 -0.0198488
                  CHANNELS 3 Zrotation Xrotation Yrotation
                  End Site
                  {
                    OFFSET 2.33842 -0.294052 0.168128
                  }
                }
              }
              JOINT lPinky1
              {
                OFFSET 8.27202 -0.0477905 -0.4584
                CHANNELS 3 Zrotation Xrotation Yrotation
                JOINT lPinky2
                {
                  OFFSET 1.82734 -0.647385 -0.700984
                  CHANNELS 3 Zrotation Xrotation Yrotation
                  End Site
                  {
                    OFFSET 1.69225 -0.51767 -0.607171
                  }
                }
              }
            }
          }
        }
      }
    }
  }
  JOINT rButtock
  {
    OFFSET -8.77824 4.35084 1.2192
    CHANNELS 3 Zrotation Xrotation Yrotation
    JOINT rThigh
    {
      OFFSET 0 -1.70687 -2.19456
      CHANNELS 3 Zrotation Xrotation Yrotation
      JOINT rShin
      {
        OFFSET 0 -36.8199 0.73152
        CHANNELS 3 Zrotation Xrotation Yrotation
        JOINT rFoot
        {
          OFFSET 0.73152 -45.1104 -5.12064
          CHANNELS 3 Zrotation Xrotation Yrotation
          End Site
          {
            OFFSET -1.1221 -3.69964 12.103
          }
        }
      }
    }
  }
  JOINT lButtock
  {
    OFFSET 8.77824 4.35084 1.2192
    CHANNELS 3 Zrotation Xrotation Yrotation
    JOINT lThigh
    {
      OFFSET 0 -1.70687 -2.19456
      CHANNELS 3 Zrotation Xrotation Yrotation
      JOINT lShin
      {
        OFFSET 0 -36.8199 0.73152
        CHANNELS 3 Zrotation Xrotation Yrotation
        JOINT lFoot
        {
          OFFSET -0.73152 -45.1104 -5.12064
          CHANNELS 3 Zrotation Xrotation Yrotation
          End Site
          {
            OFFSET 1.1221 -3.69964 12.103
          }
        }
      }
    }
  }
}
MOTION
Frames:	8
Frame Time:	0.03333
20.6324 48.287200000000006 16.3907 -16.28138 1.537321 6.744137 11.467868 5.471445 72.860829 -2.84264 -6.130964 -63.249497 12.097987 19.130249 114.256256 -25.096408 15.989588 -96.254769 5.499139 0.996208 20.521419 11.216979 -0.903635 -9.182426 -165.94499 -42.847005 166.665256 123.898635 -29.323389 171.185268 -142.716919 14.936982 21.49372 -171.31797 -12.608812 141.786535 -164.88727 1.318102 91.262975 -16.166249 -53.183582 -8.611302 -158.182861 -39.551691 107.673426 9.618951 18.508498 28.276751 -168.416731 -5.321806 137.974001 -157.815704 15.215556 127.454498 -102.043298 58.441948 106.827905 -148.860486 -48.336584 170.827093 -148.685992 -33.821371 -153.85137 5.623007 37.481627 22.037076 60.426197 64.586417 -62.945819 48.997057 6.253636 -9.834127 13.196094 -17.481121 55.686226 -71.486141 -56.816053 -73.152735 5.855987 10.641153 14.524273 130.040144 -28.714586 -74.332841 -65.173968 -66.236917 -19.049603 8.728506 52.181628 -24.884859 135.789475 37.672372 -128.729552 159.116385 13.120536 -146.359597 154.224779 48.211158 -174.175707 1.12137 9.316293 1.148219 -61.385176 78.849126 47.723573 158.418636 22.678829 147.685902 46.796034 36.736129 84.336909 -26.869036 59.419692 -6.916089 34.62819 -5.268641 -59.671426 -77.701907 45.562103 -3.125888 -4.18535 3.776065 -12.76495 105.545249 -41.672773 -37.981987 -82.842147 -39.74939 56.4017 -129.805801 -59.192591 -15.624634
21.3702 48.5167 16.4008 -16.351531 1.164437 6.826004 11.993521 3.544639 118.94906 -4.335349 -2.859359 -108.398166 -4.668404 10.176102 -37.522146 21.349068 -9.017027 52.7477 4.125893 1.167449 31.58649 10.061763 -1.014777 -11.489046 -4.034776 -7.398459 -0.253253 -94.222972 -21.319776 -134.947371 175.548365 -6.845749 -74.938889 -9.521185 -20.989845 -9.160793 -3.932994 1.472683 -2.27696 163.123365 -68.296862 76.299847 138.383247 -64.441381 70.643764 5.380196 -9.487829 23.689634 -169.748356 -4.230596 137.80329 -172.077382 -6.132534 130.618685 -153.44054 -80.372437 -157.608802 -28.665527 -60.123089 -32.201453 -16.999078 -64.256201 -2.546529 -14.063162 -5.27974 0.077194 0.575318 -1.09865 -2.9902 23.605059 9.630403 -67.987999 4.033747 63.91982 49.383887 -115.444997 -53.97052 -115.146294 -1.216934 -2.904644 16.372355 -0.522586 -5.900418 -35.170464 -1.070389 1.346028 -4.740082 -173.559429 -24.785425 -81.507707 152.144824 4.489623 -141.431271 -63.602525 -82.679011 -32.100656 9.524485 13.725492 2.664218 -17.609297 -86.364535 14.39375 176.925989 18.419295 135.728054 116.203501 -33.694368 107.374019 17.806135 -15.473758 38.704736 -13.428462 39.554697 -19.323407 21.615955 39.416225 109.41642 101.43015 29.784521 175.683483 -92.668158 58.972034 -44.580998 -174.584134 -3.222532 99.310016 90.427218 16.97776 6.081194 -6.60004 5.425238 -97.907329
21.9682 48.2916 17.1007 -16.296802 1.14069 6.185472 11.512311 6.478856 66.445076 -2.283107 -6.183606 -56.057153 14.110989 20.775225 127.997771 -20.595269 24.41308 -109.838929 -6.34175 -1.977531 34.607792 -0.238596 0.006613 -3.175174 0.096767 -33.102586 -4.973265 -44.161813 -28.110157 -81.607512 16.787036 -46.454774 -133.65997 -153.70701 32.619128 128.188392 3.00465 -8.454622 -3.093605 -121.922575 -12.566985 102.960587 -125.363767 7.396054 98.238833 16.172206 32.875471 14.841529 -162.713712 12.533959 135.638099 20.116646 -34.558392 11.881119 -74.558167 59.273605 73.776775 -135.128166 15.340515 162.586619 -89.441283 -76.021512 -85.237588 -14.963175 -24.301143 8.635258 -3.911034 -22.579064 0.252914 -46.636 -6.364953 -56.449451 -24.50916 -38.352537 -32.145264 74.155251 86.865566 -70.350752 170.616844 -1.563676 -104.190795 141.829444 31.104522 -86.994952 8.112638 8.631906 -7.495177 167.175586 -9.978418 -83.675676 7.025122 25.570521 -6.525242 173.855139 -13.530385 -137.684994 155.917154 -0.038922 174.066147 162.125859 51.430189 -169.528722 178.467049 26.751676 137.788397 -20.155807 47.883596 4.465612 29.867276 -5.114288 50.042349 -23.338147 42.608768 102.030696 32.720549 -33.585625 103.910193 157.187341 -47.643096 -102.961558 -5.326008 3.093212 -9.846649 103.701664 -44.052647 12.629282 -91.016536 21.4964 -168.081586 -73.611524 -61.069348 -177.878441
22.526799999999998 48.1976 17.8642 -15.993164 2.079805 6.170448 11.052747 4.2471 115.684991 -4.441334 -3.376923 -106.133961 -5.259928 19.315995 -98.093858 27.499561 15.847418 109.908891 -8.91173 -1.926063 24.345637 0.376479 0.00769 2.340254 -6.126926 7.731674 2.801166 -92.679516 -19.806105 -146.132128 5.336195 -10.302347 -142.674757 -158.199451 24.49127 131.057295 168.61829 -21.485597 89.729179 -174.411787 -15.871144 108.895153 -10.553473 9.355938 23.040145 -134.885798 -75.860286 178.31753 2.211236 -29.598132 0.277592 -3.603822 30.464561 -0.433202 -39.267049 -83.769364 -39.817355 4.1951 48.054257 -12.553599 -136.493829 31.175152 -175.751818 26.208311 0.608583 1.674138 -8.528092 -49.735337 3.470005 107.25512 7.095175 -139.301334 -4.853536 14.691729 53.277044 -126.202179 -51.191871 -125.867591 28.475757 30.864507 3.939136 135.402227 -26.111591 -69.240796 158.545384 -23.67024 -116.403934 145.355154 62.566781 -125.902819 6.444338 22.972976 -4.601059 0.048118 -2.522009 -5.751489 141.692858 -39.94688 157.821738 -9.038157 43.311776 3.316907 -31.468601 72.436226 14.61528 2.638318 7.187128 -0.098624 49.311139 58.771171 98.354135 -21.697031 67.810947 -13.503264 37.690379 -11.318074 -177.391504 -87.53761 -52.57025 9.558597 -10.373198 2.122932 -16.161173 104.790726 -40.982163 -159.63189 88.174546 -21.015302 -176.702222 145.672933 39.994862 -81.178568
23.069799999999997 48.1059 18.4911 -15.787356 2.335719 6.227257 14.295497 7.13866 -37.731503 4.499716 -3.261768 46.789847 1.940314 25.659811 -160.437658 7.659999 35.241294 173.83883 -8.227155 -1.125365 15.551967 1.555863 0.047675 3.510036 -143.111684 44.586302 142.280396 -104.709893 3.480237 102.799292 -116.082364 44.634278 -111.956483 8.973864 -75.698887 -8.295831 35.824364 -37.782938 8.903397 2.352936 -23.145452 -23.201883 22.171377 -12.695886 14.47263 -7.837398 -59.897262 -25.198738 -5.991827 -1.911453 2.634 70.701717 -81.000668 40.421403 -124.931768 47.930438 132.358863 16.642095 20.733998 10.375198 -2.890731 31.185733 37.097982 -162.063653 17.283306 -124.588959 174.486997 -81.564731 -162.169907 -61.306807 26.340547 0.031526 178.000448 -7.612055 -125.22551 -123.692805 -52.607625 -124.506783 -154.105045 -48.288478 -94.587344 38.401394 32.343114 -2.694545 29.261908 24.781463 -23.078052 175.480134 -6.393456 -91.70782 1.421364 6.15049 0.307243 0.271593 9.877564 -6.391521 145.150485 -19.092836 167.175804 -11.485611 29.036027 5.363875 9.479811 4.655933 7.825055 157.452555 43.765893 155.972498 -27.002694 -22.10783 -15.113932 4.999056 34.108951 -22.641651 -15.127159 33.071257 97.551788 -47.050208 72.586259 -42.129481 16.245836 -2.235489 4.354819 73.57736 -58.741328 2.198108 -87.961996 6.640004 0.091775 49.644985 73.55204 24.189079
23.6448 48.1062 18.9056 -15.577474 2.318078 6.318453 11.984798 2.981209 168.508785 -3.854847 0.25649 -160.073557 5.046269 6.338314 27.60954 -5.708945 -15.723954 -13.081013 -4.543899 -0.40915 10.285186 3.958174 0.076215 2.205318 0.903247 -45.457284 -6.757611 -119.325861 -22.798506 -108.450402 76.959324 -35.187597 -142.072106 -42.836572 42.447003 18.362598 -3.215746 -4.323252 -0.259578 11.471768 -4.333657 2.052924 -152.235385 -33.23604 103.446524 6.37868 26.520288 33.556925 -2.669151 -5.963175 1.70398 -28.774907 55.135734 22.536279 -130.088379 41.400968 140.235492 -154.263502 -59.435088 169.071201 2.411496 6.110387 26.255373 -1.342867 20.026458 -7.176434 -5.312864 -31.477522 1.374758 73.699009 28.910215 -110.060188 179.824288 -43.282358 163.782384 10.649382 70.828013 -14.583594 173.468433 -7.306525 -105.015046 177.625549 -63.275527 -146.070289 22.176542 19.953993 -18.566913 178.087378 -12.402173 -92.436574 2.869268 7.782485 -0.386879 138.483182 38.11039 -127.861123 0.586508 5.411806 5.092273 157.59568 -22.973507 -172.860233 -14.152903 43.124143 2.141349 40.447793 -44.61865 31.6294 24.68789 -6.832675 44.283731 -22.912931 37.004027 128.176102 18.011539 -40.669428 106.549042 -42.825566 -77.297939 48.401028 -20.992675 4.797246 -25.573214 111.337974 -29.717768 -24.484768 -91.603058 -5.330729 -166.763833 -129.635039 -45.993544 124.158831
24.2578 48.1472 19.1525 -15.356539 2.185506 6.387006 9.662814 5.22899 96.869295 -3.789589 -5.47196 -88.61525 11.492014 18.087401 110.90081 -25.591842 13.567926 -92.627466 -1.504493 -0.106701 8.112989 5.796418 0.03488 0.688961 -159.64421 0.504363 159.442693 54.862872 -40.940613 100.169055 -154.642752 64.957743 15.21863 -160.235606 14.47462 133.976196 -175.340624 -6.434889 89.51362 -123.384564 24.199118 57.299453 -88.595669 19.820005 87.450449 -57.109921 81.152044 67.69685 -4.863273 2.054539 2.845997 -3.547532 17.494696 0.730425 -113.427364 51.78319 123.954263 -145.690155 -43.014306 175.166725 -20.194117 57.856127 57.966576 -136.812538 -2.519219 -125.216125 -3.389395 -20.448024 -0.13329 126.677852 3.609562 -120.006342 -176.920069 26.293617 158.24933 19.046271 78.788865 -21.244494 169.92605 -3.458897 -104.96574 112.75203 39.010633 -58.462776 148.736088 -10.958368 -113.750344 164.276403 -29.874156 -138.512342 157.189064 5.534949 -141.819857 6.516682 15.086327 -3.829829 -1.321135 22.476609 1.361801 157.014538 12.27435 -167.820237 -109.273322 78.714154 73.708563 146.009639 -8.393126 128.74616 26.078965 -3.163837 46.680114 -23.254721 35.974996 -124.91921 -37.234066 0.99219 48.491364 19.073275 -11.932094 8.08588 118.534865 65.572482 50.072291 -126.693831 -19.920941 107.995597 90.073531 -19.791884 162.987586 129.890291 -32.594267 -137.039397
24.942500000000003 48.4397 19.1515 -15.215505 2.067304 6.685406 14.375195 4.673226 -103.011637 2.371847 1.716379 111.624783 11.106406 15.618682 95.392639 -25.815451 6.20984 -79.29171 2.403597 0.162969 7.756554 9.855496 -0.238772 -2.768862 -14.963411 33.61801 11.81944 75.810946 13.559404 -5.561272 -7.44669 -13.141368 107.368811 -6.935515 -44.155801 -14.12957 12.885131 -17.767894 0.599046 -96.446675 11.087858 96.012793 -1.060028 18.787314 24.163569 -14.569977 -51.96899 -41.586079 -7.008412 5.682299 4.563937 19.528959 -58.377927 -3.769688 -122.641335 46.385885 133.861513 -147.707847 -48.693013 173.428454 -123.356453 54.931695 166.804177 -150.673289 46.791789 -142.670401 17.962395 41.33325 -20.762699 126.089176 47.929136 -86.924472 -23.031791 -30.506315 42.550416 -144.362561 -37.224991 -145.874007 175.253643 -15.898971 -105.179978 27.769114 -39.23613 35.103631 -17.814127 -25.249871 -0.366843 165.165443 -28.843105 -93.407631 114.870923 55.642169 -106.069682 -179.970802 -45.239911 -138.217956 -0.118472 15.071027 4.333276 163.861484 -68.479101 -171.984571 -7.900139 28.330457 5.089657 161.174718 33.05173 156.58582 23.238901 -3.719025 45.147115 -23.180719 34.94469 7.865007 31.238883 19.081358 -28.722849 -116.277298 35.019556 30.287348 -61.613046 36.26103 -49.294789 155.224263 -4.320936 -88.530535 -87.344888 -56.884614 -1.531848 145.635835 -24.421923 -112.600355
